<svg width="585" height="47" viewBox="0 0 585 47" fill="none" xmlns="http://www.w3.org/2000/svg">
<path d="M0.48 46V0.239998H10.72V37.68H44.192V46H0.48ZM66.541 46.32C60.8237 46.32 56.365 44.912 53.165 42.096C49.965 39.2373 48.365 35.056 48.365 29.552C48.365 24.0053 49.965 19.824 53.165 17.008C56.365 14.1493 60.8237 12.72 66.541 12.72H78.381C84.0983 12.72 88.557 14.1493 91.757 17.008C94.957 19.824 96.557 24.0053 96.557 29.552C96.557 35.056 94.957 39.2373 91.757 42.096C88.557 44.912 84.0983 46.32 78.381 46.32H66.541ZM66.541 38.96H78.381C81.1543 38.96 83.2663 38.192 84.717 36.656C86.2103 35.12 86.957 32.752 86.957 29.552C86.957 26.3093 86.2103 23.92 84.717 22.384C83.2663 20.848 81.1543 20.08 78.381 20.08H66.541C63.7677 20.08 61.6343 20.848 60.141 22.384C58.6903 23.92 57.965 26.3093 57.965 29.552C57.965 32.752 58.6903 35.12 60.141 36.656C61.6343 38.192 63.7677 38.96 66.541 38.96ZM119.229 46.32C113.511 46.32 109.053 44.912 105.853 42.096C102.653 39.2373 101.053 35.056 101.053 29.552C101.053 24.0053 102.653 19.824 105.853 17.008C109.053 14.1493 113.511 12.72 119.229 12.72H140.669V20.08H119.229C116.455 20.08 114.322 20.848 112.829 22.384C111.378 23.92 110.653 26.3093 110.653 29.552C110.653 32.752 111.378 35.12 112.829 36.656C114.322 38.192 116.455 38.96 119.229 38.96H141.309V46.32H119.229ZM154.851 46C151.395 46 148.749 45.1253 146.915 43.376C145.08 41.6267 144.163 39.1307 144.163 35.888C144.163 32.688 145.08 30.2133 146.915 28.464C148.749 26.7147 151.395 25.84 154.851 25.84H179.427V24.304C179.427 21.7013 178.147 20.4 175.587 20.4H148.451V13.04H178.019C181.901 13.04 184.653 13.936 186.275 15.728C187.896 17.4773 188.707 19.952 188.707 23.152V46H154.851ZM156.515 38.64H179.427V33.2H156.515C155.704 33.2 155.064 33.456 154.595 33.968C154.168 34.4373 153.955 35.0773 153.955 35.888C153.955 36.6987 154.168 37.36 154.595 37.872C155.064 38.384 155.704 38.64 156.515 38.64ZM195.77 46V0.239998H205.05V46H195.77ZM235.418 46V0.239998H273.754C278.49 0.239998 282.159 1.43466 284.762 3.824C287.407 6.21333 288.73 9.84 288.73 14.704C288.73 19.568 287.407 23.1947 284.762 25.584C282.159 27.9733 278.49 29.168 273.754 29.168H245.658V46H235.418ZM272.538 8.56H245.658V20.784L272.538 20.848C274.415 20.848 275.844 20.3787 276.826 19.44C277.85 18.5013 278.362 16.9227 278.362 14.704C278.362 12.4427 277.85 10.864 276.826 9.968C275.844 9.02933 274.415 8.56 272.538 8.56ZM294.145 46V13.04H319.361C323.073 13.04 325.804 13.9787 327.553 15.856C329.302 17.6907 330.177 20.1227 330.177 23.152V30H320.769V24.304C320.769 21.744 319.489 20.464 316.929 20.464H303.553V46H294.145ZM353.416 46.32C347.699 46.32 343.24 44.912 340.04 42.096C336.84 39.2373 335.24 35.056 335.24 29.552C335.24 24.0053 336.84 19.824 340.04 17.008C343.24 14.1493 347.699 12.72 353.416 12.72H365.256C370.973 12.72 375.432 14.1493 378.632 17.008C381.832 19.824 383.432 24.0053 383.432 29.552C383.432 35.056 381.832 39.2373 378.632 42.096C375.432 44.912 370.973 46.32 365.256 46.32H353.416ZM353.416 38.96H365.256C368.029 38.96 370.141 38.192 371.592 36.656C373.085 35.12 373.832 32.752 373.832 29.552C373.832 26.3093 373.085 23.92 371.592 22.384C370.141 20.848 368.029 20.08 365.256 20.08H353.416C350.643 20.08 348.509 20.848 347.016 22.384C345.565 23.92 344.84 26.3093 344.84 29.552C344.84 32.752 345.565 35.12 347.016 36.656C348.509 38.192 350.643 38.96 353.416 38.96ZM407.61 46C403.898 46 401.167 45.0827 399.418 43.248C397.668 41.3707 396.794 38.9173 396.794 35.888V20.4H387.258V13.04H396.794V2.928H406.074V13.04H419.77V20.4H406.074V34.736C406.074 37.3387 407.354 38.64 409.914 38.64H421.562V46H407.61ZM443.229 46.32C437.511 46.32 433.053 44.912 429.853 42.096C426.653 39.2373 425.053 35.056 425.053 29.552C425.053 24.0053 426.653 19.824 429.853 17.008C433.053 14.1493 437.511 12.72 443.229 12.72H455.069C460.786 12.72 465.245 14.1493 468.445 17.008C471.645 19.824 473.245 24.0053 473.245 29.552C473.245 35.056 471.645 39.2373 468.445 42.096C465.245 44.912 460.786 46.32 455.069 46.32H443.229ZM443.229 38.96H455.069C457.842 38.96 459.954 38.192 461.405 36.656C462.898 35.12 463.645 32.752 463.645 29.552C463.645 26.3093 462.898 23.92 461.405 22.384C459.954 20.848 457.842 20.08 455.069 20.08H443.229C440.455 20.08 438.322 20.848 436.829 22.384C435.378 23.92 434.653 26.3093 434.653 29.552C434.653 32.752 435.378 35.12 436.829 36.656C438.322 38.192 440.455 38.96 443.229 38.96ZM495.916 46.32C490.199 46.32 485.74 44.912 482.54 42.096C479.34 39.2373 477.74 35.056 477.74 29.552C477.74 24.0053 479.34 19.824 482.54 17.008C485.74 14.1493 490.199 12.72 495.916 12.72H517.356V20.08H495.916C493.143 20.08 491.009 20.848 489.516 22.384C488.065 23.92 487.34 26.3093 487.34 29.552C487.34 32.752 488.065 35.12 489.516 36.656C491.009 38.192 493.143 38.96 495.916 38.96H517.996V46.32H495.916ZM539.666 46.32C533.949 46.32 529.49 44.912 526.29 42.096C523.09 39.2373 521.49 35.056 521.49 29.552C521.49 24.0053 523.09 19.824 526.29 17.008C529.49 14.1493 533.949 12.72 539.666 12.72H551.506C557.223 12.72 561.682 14.1493 564.882 17.008C568.082 19.824 569.682 24.0053 569.682 29.552C569.682 35.056 568.082 39.2373 564.882 42.096C561.682 44.912 557.223 46.32 551.506 46.32H539.666ZM539.666 38.96H551.506C554.279 38.96 556.391 38.192 557.842 36.656C559.335 35.12 560.082 32.752 560.082 29.552C560.082 26.3093 559.335 23.92 557.842 22.384C556.391 20.848 554.279 20.08 551.506 20.08H539.666C536.893 20.08 534.759 20.848 533.266 22.384C531.815 23.92 531.09 26.3093 531.09 29.552C531.09 32.752 531.815 35.12 533.266 36.656C534.759 38.192 536.893 38.96 539.666 38.96ZM575.458 46V0.239998H584.738V46H575.458Z" fill="#141627"/>
</svg>
